<svg width="881" height="176" viewBox="0 0 881 176" fill="none" xmlns="http://www.w3.org/2000/svg">
<path d="M880.42 172.36H857.38L848.5 146.68H780.34L771.7 172.36H748.66L806.5 4.36035H822.34L880.42 172.36ZM841.78 126.76L814.66 40.1204L787.06 126.76H841.78Z" fill="black"/>
<path d="M514.84 172.34H535.34H536.2L536.58 171.56L604.2 32.7696V134.34C604.2 145.42 608.21 155.05 616.12 162.96C624.04 170.72 633.74 174.65 644.97 174.65C656.04 174.65 665.67 170.72 673.58 162.97C681.5 155.05 685.51 145.42 685.51 134.34V43.3496C685.51 37.5396 687.49 32.7296 691.55 28.6696C695.63 24.4396 700.35 22.3996 706 22.3996C711.65 22.3996 716.53 24.3696 720.44 28.4296C724.52 32.5096 726.5 37.3896 726.5 43.3596V170.96V172.34H727.88H747.23H748.61V170.96V43.8097C748.61 32.2597 744.36 22.3196 735.98 14.2496C727.78 6.04965 717.69 1.88965 706 1.88965C694.31 1.88965 684.22 6.05965 676 14.2696C667.79 22.3196 663.62 32.2696 663.62 43.8097V134.56C663.62 140.07 661.79 144.66 658.02 148.57C654.42 152.31 650.15 154.13 644.97 154.13C639.62 154.13 635.19 152.3 631.44 148.55C627.69 144.65 625.86 140.07 625.86 134.56V6.03965V4.65965H624.48H595.46H594.6L594.22 5.43965L513.61 170.35L512.64 172.34H514.86H514.84Z" fill="black"/>
<path d="M397.919 172.34V4.33984H456.959C491.999 4.33984 514.559 30.7398 514.559 61.4598C514.559 85.9398 500.399 107.3 477.359 115.22L512.639 172.34H487.679L454.319 118.82H419.759V172.34H397.919ZM456.959 98.8998C478.799 98.8998 492.719 81.8598 492.719 61.4598C492.719 41.0598 478.799 24.0198 456.959 24.0198H419.759V98.8998H456.959Z" fill="black"/>
<path d="M299.28 175.68C245.28 175.68 212.64 133.2 212.64 87.84C212.64 42.48 245.28 0 299.28 0C353.28 0 385.92 42.24 385.92 87.84C385.92 133.44 353.04 175.68 299.28 175.68ZM299.28 156C338.64 156 362.88 122.88 362.88 87.84C362.88 52.8 338.64 19.68 299.28 19.68C259.92 19.68 235.44 52.56 235.44 87.84C235.44 123.12 259.68 156 299.28 156Z" fill="black"/>
<path d="M200.64 24.0198H128.16V84.0198H200.64V103.7H128.16V172.34H106.32V4.33984H200.64V24.0198Z" fill="black"/>
<path d="M94.32 24.0198H21.84V84.0198H94.32V103.7H21.84V172.34H0V4.33984H94.32V24.0198Z" fill="black"/>
</svg>
